<?xml version="1.0" encoding="UTF-8" standalone="no"?>
<svg
   width="16"
   height="16"
   fill="#ffffff"
   viewBox="0 0 256 256"
   version="1.1"
   id="svg1"
   sodipodi:docname="navigation-arrow-fill.svg"
   inkscape:version="1.4.2 (ebf0e940d0, 2025-05-08)"
   xmlns:inkscape="http://www.inkscape.org/namespaces/inkscape"
   xmlns:sodipodi="http://sodipodi.sourceforge.net/DTD/sodipodi-0.dtd"
   xmlns:xlink="http://www.w3.org/1999/xlink"
   xmlns="http://www.w3.org/2000/svg"
   xmlns:svg="http://www.w3.org/2000/svg">
  <defs
     id="defs1">
    <linearGradient
       id="linearGradient2"
       inkscape:collect="always">
      <stop
         style="stop-color:#ffffff;stop-opacity:1;"
         offset="0.50234383"
         id="stop2" />
      <stop
         style="stop-color:#8da5f3;stop-opacity:1;"
         offset="0.50234383"
         id="stop3" />
    </linearGradient>
    <linearGradient
       inkscape:collect="always"
       xlink:href="#linearGradient2"
       id="linearGradient3"
       x1="70.528671"
       y1="217.51944"
       x2="217.55579"
       y2="70.492325"
       gradientUnits="userSpaceOnUse" />
  </defs>
  <sodipodi:namedview
     id="namedview1"
     pagecolor="#505050"
     bordercolor="#ffffff"
     borderopacity="1"
     inkscape:showpageshadow="0"
     inkscape:pageopacity="0"
     inkscape:pagecheckerboard="1"
     inkscape:deskcolor="#505050"
     inkscape:zoom="16"
     inkscape:cx="-3.375"
     inkscape:cy="5.125"
     inkscape:window-width="1362"
     inkscape:window-height="729"
     inkscape:window-x="0"
     inkscape:window-y="18"
     inkscape:window-maximized="1"
     inkscape:current-layer="svg1" />
  <path
     d="M248,121.58a15.76,15.76,0,0,1-11.29,15l-.2.06-78,21.84-21.84,78-.06.2a15.77,15.77,0,0,1-15,11.29h-.3a15.77,15.77,0,0,1-15.07-10.67L41,61.41a1,1,0,0,1-.05-.16A16,16,0,0,1,61.25,40.9l.16.05,175.92,65.26A15.78,15.78,0,0,1,248,121.58Z"
     id="path1"
     style="fill:url(#linearGradient3)" />
</svg>
